<svg width="136" height="102" viewBox="0 0 136 102" fill="none" xmlns="http://www.w3.org/2000/svg">
<path d="M17.0493 59.9062L16.3321 60.0984C11.8759 61.2924 7.29556 58.6479 6.10154 54.1918C4.90752 49.7356 7.55199 45.1553 12.0081 43.9613L38.5447 36.8508C42.6047 35.7629 45.0141 31.5897 43.9263 27.5297C42.8384 23.4696 45.2478 19.2964 49.3078 18.2085L106.864 2.78654C112.607 1.24758 118.511 4.65601 120.05 10.3995L120.482 12.0132C121.782 16.8654 118.903 21.8529 114.05 23.1531L112.257 23.6335C108.395 24.6683 106.103 28.638 107.138 32.5L107.426 33.5758C108.302 36.8436 111.661 38.7829 114.929 37.9073C118.197 37.0317 121.556 38.9709 122.431 42.2388L123.152 44.9283C124.426 49.6815 121.605 54.5672 116.852 55.8409L97.1284 61.1257C92.1771 62.4523 89.2388 67.5416 90.5655 72.4929C91.8922 77.4442 88.9539 82.5334 84.0026 83.8601L57.1075 91.0667C55.5231 91.4912 53.8945 90.551 53.4699 88.9666C53.0454 87.3822 51.4168 86.4419 49.8324 86.8664L29.3921 92.3434C24.8369 93.564 20.1548 90.8607 18.9342 86.3056L18.5018 84.6918C17.5201 81.0279 19.6944 77.2618 23.3584 76.2801C27.0223 75.2983 29.1967 71.5323 28.2149 67.8683L27.7345 66.0753C26.4874 61.4211 21.7035 58.6591 17.0493 59.9062Z" fill="#E5EFE4"/>
<rect x="29.7002" y="57.1199" width="76.478" height="13.259" fill="#F2F2F2"/>
<path d="M57.3906 87.6156L59.3685 70.3789H76.5101L78.488 87.6156H57.3906Z" fill="#F2F2F2"/>
<rect x="29.7002" y="13.3651" width="76.478" height="43.8078" fill="white"/>
<path d="M37.4965 13.3651H31.7002C30.5956 13.3651 29.7002 14.2605 29.7002 15.3651V70.3789H106.178V15.3651C106.178 14.2605 105.283 13.3651 104.178 13.3651H46.7778" stroke="#666666" stroke-width="2" stroke-linecap="round" stroke-linejoin="round"/>
<path d="M29.7002 57.1199H48.1604" stroke="#666666" stroke-width="2" stroke-linecap="round" stroke-linejoin="round"/>
<path d="M89.0371 57.1199L106.179 57.1199" stroke="#666666" stroke-width="2" stroke-linecap="round" stroke-linejoin="round"/>
<path d="M50.7979 87.6156H56.7315M85.0811 87.6156H79.8068M59.3687 70.3789C59.3687 75.2405 58.8412 85.4942 56.7315 87.6156M56.7315 87.6156H79.8068M76.5103 70.3789C76.5103 75.2405 77.1696 85.4942 79.8068 87.6156" stroke="#666666" stroke-width="2" stroke-linecap="round" stroke-linejoin="round"/>
<ellipse cx="69.0244" cy="25.4802" rx="4.13674" ry="4.15969" stroke="#09B300" stroke-width="2" stroke-linecap="round" stroke-linejoin="round"/>
<ellipse cx="78.9541" cy="57.9258" rx="4.13674" ry="4.15969" stroke="#09B300" stroke-width="2" stroke-linecap="round" stroke-linejoin="round"/>
<ellipse cx="49.1682" cy="35.4635" rx="4.96409" ry="4.99163" stroke="#09B300" stroke-width="2" stroke-linecap="round" stroke-linejoin="round"/>
<path d="M54.1328 37.1274L62.4063 39.6232M69.0251 35.4635V29.64M74.8165 38.3753L80.1943 35.4635M75.6439 42.951L78.9533 43.7829M72.7482 47.9426L76.8849 54.1821M64.8883 47.9426L60.7516 51.6863" stroke="#09B300" stroke-width="2" stroke-linecap="round" stroke-linejoin="round"/>
<ellipse cx="71.2174" cy="43.0382" rx="6.61879" ry="6.65551" fill="#09B300"/>
<ellipse cx="82.2625" cy="44.6148" rx="3.30939" ry="3.32775" stroke="#09B300" stroke-width="2" stroke-linecap="round" stroke-linejoin="round"/>
<ellipse cx="83.0887" cy="33.7996" rx="3.30939" ry="3.32775" stroke="#09B300" stroke-width="2" stroke-linecap="round" stroke-linejoin="round"/>
<ellipse cx="57.4414" cy="54.5981" rx="4.13674" ry="4.15969" stroke="#09B300" stroke-width="2" stroke-linecap="round" stroke-linejoin="round"/>
<ellipse cx="69.0241" cy="42.1189" rx="6.61879" ry="6.65551" stroke="#666666" stroke-width="2" stroke-linecap="round" stroke-linejoin="round"/>
</svg>
