<svg width="136" height="101" viewBox="0 0 136 101" fill="none" xmlns="http://www.w3.org/2000/svg">
<path d="M16.9907 59.7005L16.276 59.892C11.8351 61.0819 7.27051 58.4465 6.08059 54.0057C4.89067 49.5649 7.52607 45.0002 11.9669 43.8103L38.4124 36.7243C42.4585 35.6401 44.8596 31.4812 43.7754 27.4351C42.6913 23.389 45.0924 19.2302 49.1385 18.146L106.497 2.77696C112.22 1.24329 118.104 4.64001 119.637 10.3638L120.068 11.9719C121.364 16.8075 118.494 21.7779 113.659 23.0736L111.872 23.5524C108.023 24.5836 105.739 28.5396 106.77 32.3884L107.058 33.4605C107.93 36.7171 111.278 38.6497 114.534 37.7771C117.791 36.9045 121.138 38.8371 122.011 42.0937L122.729 44.774C123.998 49.5109 121.187 54.3799 116.45 55.6491L96.7949 60.9158C91.8606 62.2379 88.9324 67.3097 90.2546 72.244C91.5767 77.1782 88.6485 82.25 83.7142 83.5722L56.9114 90.754C55.3324 91.1771 53.7094 90.24 53.2864 88.6611C52.8633 87.0821 51.2403 86.1451 49.6613 86.5681L29.2912 92.0263C24.7516 93.2427 20.0856 90.5487 18.8692 86.0092L18.4383 84.401C17.4599 80.7497 19.6268 76.9965 23.2782 76.0181C26.9295 75.0398 29.0964 71.2866 28.118 67.6353L27.6392 65.8484C26.3964 61.2102 21.6289 58.4577 16.9907 59.7005Z" fill="#E5EFE4"/>
<rect x="30.4434" y="59.8836" width="75.8719" height="13.2135" fill="#F2F2F2"/>
<path d="M57.9141 90.2746L59.8763 73.097H76.882L78.8442 90.2746H57.9141Z" fill="#F2F2F2"/>
<path d="M30.4434 16.2791H106.315L106.315 59.8835H30.4434L30.4434 16.2791Z" fill="white"/>
<path d="M68.6108 49.6827C68.6108 47.04 64.0323 43.7367 61.416 43.076L71.8811 25.8985L83.0003 43.076C80.602 43.7367 75.8055 45.983 75.8055 49.6827V51.6648V54.9681H68.6108V51.6648V49.6827Z" fill="#09B300"/>
<path d="M40.3271 16.279H32.4434C31.3388 16.279 30.4434 17.1745 30.4434 18.279V73.0971H106.315V18.279C106.315 17.1745 105.42 16.279 104.315 16.279H49.2065" stroke="#666666" stroke-width="2" stroke-linecap="round" stroke-linejoin="round"/>
<path d="M79.499 37.4206V26.1891H89.31V34.1172M89.31 59.2229V51.2948M79.499 48.6521V59.2229M83.4234 51.2948H89.31M89.31 51.2948V42.706M83.4234 42.706H89.31M89.31 42.706V34.1172M83.4234 34.1172H89.31M56.6066 37.4206V34.1172M56.6066 34.1172L52.6822 25.5285L48.7578 34.1172M56.6066 34.1172H52.6822M48.7578 34.1172V59.2229M48.7578 34.1172H52.6822M56.6066 59.2229V48.6521M52.6822 34.1172V59.2229" stroke="#09B300" stroke-width="2" stroke-linecap="round" stroke-linejoin="round"/>
<path d="M65.1088 58.8529C65.1088 57.8956 65.1088 56.4223 65.1088 54.8889M68.3791 25.8192L57.9141 42.9967C60.5303 43.6574 65.1088 46.9608 65.1088 49.6035C65.1088 50.1219 65.1088 50.8099 65.1088 51.5855M68.3791 25.8192L79.4983 42.9967C77.1001 43.6574 72.3036 45.9037 72.3036 49.6035C72.3036 50.2596 72.3036 50.9254 72.3036 51.5855M68.3791 25.8192V39.6933M72.3036 58.8529C72.3036 58.0592 72.3036 56.6116 72.3036 54.8889M65.1088 51.5855C65.6321 51.5855 70.1233 51.5855 72.3036 51.5855M65.1088 51.5855C65.1088 52.5979 65.1088 53.7597 65.1088 54.8889M72.3036 51.5855C72.3036 52.731 72.3036 53.8591 72.3036 54.8889M65.1088 54.8889H72.3036" stroke="#666666" stroke-width="2" stroke-linecap="round" stroke-linejoin="round"/>
<path d="M30.4434 59.8836H106.315" stroke="#666666" stroke-width="2" stroke-linecap="round" stroke-linejoin="round"/>
<path d="M51.374 90.2746H57.2606M85.3856 90.2746H80.153M59.8769 73.097C59.8769 77.942 59.3537 88.1604 57.2606 90.2746M57.2606 90.2746H80.153M76.8827 73.097C76.8827 77.942 77.5367 88.1604 80.153 90.2746" stroke="#666666" stroke-width="2" stroke-linecap="round" stroke-linejoin="round"/>
</svg>
