<?xml version="1.0" standalone="no"?>
<!DOCTYPE svg PUBLIC "-//W3C//DTD SVG 20010904//EN"
 "http://www.w3.org/TR/2001/REC-SVG-20010904/DTD/svg10.dtd">
<svg version="1.0" xmlns="http://www.w3.org/2000/svg"
 width="128.000000pt" height="132.000000pt" viewBox="0 0 128.000000 132.000000"
 preserveAspectRatio="xMidYMid meet">

<g transform="translate(0.000000,132.000000) scale(0.100000,-0.100000)"
fill="#000000" stroke="none">
<path d="M520 1181 c-30 -10 -75 -28 -100 -41 -50 -26 -165 -137 -193 -187
l-18 -33 62 0 c58 0 68 -4 152 -55 l89 -55 29 17 c16 10 29 20 29 23 0 3 -43
31 -95 63 l-95 58 34 29 c19 17 60 42 92 58 51 23 71 27 154 27 86 0 101 -3
160 -32 36 -17 78 -42 94 -55 l29 -25 -83 -59 c-46 -32 -83 -63 -83 -68 1 -5
12 -16 25 -24 23 -14 28 -11 104 42 76 54 81 56 142 56 l63 0 -18 32 c-58 101
-182 197 -302 232 -73 21 -201 20 -271 -3z"/>
<path d="M180 852 c-36 -36 -40 -44 -40 -90 0 -43 5 -57 30 -86 17 -19 52 -43
78 -52 26 -10 53 -22 60 -27 20 -15 14 -45 -13 -63 -23 -15 -27 -15 -50 0 -14
9 -25 21 -25 26 0 6 -22 10 -50 10 -58 0 -62 -10 -29 -70 29 -52 88 -84 144
-78 109 13 167 124 114 218 -21 38 -46 55 -122 85 -31 12 -38 19 -35 37 4 28
45 38 54 14 4 -12 20 -16 55 -16 42 0 49 3 49 20 0 58 -51 102 -127 108 -51 4
-54 3 -93 -36z"/>
<path d="M976 869 c-84 -66 -69 -188 29 -232 80 -36 90 -43 93 -64 2 -14 -5
-27 -21 -38 -27 -18 -53 -12 -68 16 -7 15 -21 19 -60 19 -51 0 -51 0 -45 -27
15 -63 73 -113 137 -120 116 -11 197 112 141 216 -18 34 -54 58 -124 85 -26
10 -38 21 -38 35 0 27 36 37 59 17 11 -10 36 -16 64 -16 47 0 47 0 41 28 -16
63 -67 102 -135 102 -32 0 -55 -7 -73 -21z"/>
<path d="M220 397 c0 -26 79 -124 132 -165 186 -143 420 -145 610 -5 52 37
138 144 138 169 0 10 -15 14 -55 14 -52 0 -56 -2 -100 -49 -49 -53 -138 -105
-197 -116 l-38 -7 0 86 0 86 -35 0 -35 0 0 -89 0 -88 -52 9 c-74 13 -161 63
-213 120 -42 47 -45 48 -99 48 -40 0 -56 -4 -56 -13z"/>
</g>
</svg>
