<svg width="136" height="102" viewBox="0 0 136 102" fill="none" xmlns="http://www.w3.org/2000/svg">
<path d="M17.0493 59.9062L16.3321 60.0984C11.8759 61.2924 7.29556 58.6479 6.10154 54.1918C4.90752 49.7356 7.552 45.1553 12.0081 43.9613L38.5447 36.8508C42.6047 35.7629 45.0142 31.5897 43.9263 27.5297C42.8384 23.4696 45.2478 19.2964 49.3078 18.2085L106.864 2.78654C112.607 1.24758 118.511 4.65601 120.05 10.3995L120.482 12.0132C121.782 16.8654 118.903 21.8529 114.05 23.1531L112.257 23.6335C108.395 24.6683 106.103 28.638 107.138 32.5L107.426 33.5758C108.302 36.8436 111.661 38.7829 114.929 37.9073C118.197 37.0317 121.556 38.9709 122.431 42.2388L123.152 44.9283C124.426 49.6815 121.605 54.5672 116.852 55.8409L97.1284 61.1257C92.1771 62.4523 89.2388 67.5416 90.5655 72.4929C91.8922 77.4442 88.9539 82.5334 84.0026 83.8601L57.1075 91.0667C55.5231 91.4912 53.8945 90.551 53.47 88.9666C53.0454 87.3821 51.4168 86.4419 49.8324 86.8664L29.3921 92.3434C24.8369 93.564 20.1548 90.8607 18.9342 86.3056L18.5018 84.6918C17.5201 81.0279 19.6944 77.2618 23.3584 76.2801C27.0223 75.2983 29.1967 71.5323 28.2149 67.8683L27.7345 66.0753C26.4874 61.4211 21.7035 58.6591 17.0493 59.9062Z" fill="#E5EFE4"/>
<rect x="29.7002" y="57.1198" width="76.478" height="13.259" fill="#F2F2F2"/>
<path d="M57.3906 87.6156L59.3685 70.3789H76.5101L78.488 87.6156H57.3906Z" fill="#F2F2F2"/>
<rect x="29.7002" y="13.3651" width="76.478" height="43.8078" fill="white"/>
<path d="M39.724 13.3651H31.7002C30.5956 13.3651 29.7002 14.2605 29.7002 15.3651V70.3789H106.178V15.3651C106.178 14.2605 105.283 13.3651 104.178 13.3651H48.6341" stroke="#666666" stroke-width="2" stroke-linecap="round" stroke-linejoin="round"/>
<path d="M29.7002 57.1198H40.2489" stroke="#666666" stroke-width="2" stroke-linecap="round" stroke-linejoin="round"/>
<path d="M71.8945 57.1198H106.178" stroke="#666666" stroke-width="2" stroke-linecap="round" stroke-linejoin="round"/>
<path d="M50.7979 87.6156H56.7315M85.0811 87.6156H79.8068M59.3687 70.3789C59.3687 75.2405 58.8412 85.4942 56.7315 87.6156M56.7315 87.6156H79.8068M76.5103 70.3789C76.5103 75.2405 77.1696 85.4942 79.8068 87.6156" stroke="#666666" stroke-width="2" stroke-linecap="round" stroke-linejoin="round"/>
<path d="M72.5951 29.5371L70.9419 31.1996C70.7132 31.4295 70.3873 31.5343 70.0675 31.4807L68.8853 31.2826C68.4377 31.2076 67.9957 31.4434 67.8087 31.8569L66.402 34.9689C66.2142 35.3843 66.3312 35.8742 66.6864 36.16L67.7527 37.0177C67.9887 37.2075 68.1259 37.4941 68.1259 37.7969V40.451C68.1259 40.8013 67.9425 41.1262 67.6425 41.3072L66.9246 41.7403C66.4575 42.0221 66.3025 42.6264 66.5762 43.0983L68.5956 46.5793C68.8046 46.9396 69.2151 47.1326 69.6259 47.0637L70.8847 46.8528C71.2045 46.7992 71.5304 46.904 71.759 47.1339L73.0761 48.4583C73.3029 48.6864 73.4062 49.0096 73.3536 49.327L73.1682 50.4458C73.0879 50.9303 73.3713 51.4014 73.8369 51.5575L77.2675 52.7073C77.6663 52.841 78.106 52.7109 78.3679 52.3818L79.2658 51.2532C79.4555 51.0147 79.7436 50.8758 80.0483 50.8758H82.7609C83.0656 50.8758 83.3538 51.0147 83.5435 51.2532L84.3906 52.3179C84.6767 52.6775 85.1709 52.7959 85.5888 52.6049L88.7047 51.1807C89.1018 50.9992 89.3352 50.5811 89.2814 50.1478L89.032 48.1422C88.9893 47.7983 89.1276 47.4568 89.3976 47.2396L90.7316 46.1665C90.9093 46.0236 91.1305 45.9456 91.3584 45.9456H93.0844C93.5437 45.9456 93.944 45.6327 94.0548 45.1869L94.9378 41.6355C95.0318 41.2575 94.8977 40.8593 94.5941 40.6151L93.4222 39.6724C93.1863 39.4826 93.049 39.196 93.049 38.8932V36.498C93.049 36.2338 93.1536 35.9802 93.34 35.7929L94.5293 34.5969C94.8584 34.266 94.9148 33.7514 94.6653 33.357L92.6512 30.1745C92.405 29.7855 91.925 29.6148 91.4884 29.7611L90.3693 30.1362C90.0087 30.2571 89.6107 30.1629 89.3425 29.8932L88.0988 28.6427C87.872 28.4146 87.7687 28.0913 87.8213 27.774L88.021 26.5693C88.0948 26.1237 87.8609 25.684 87.4502 25.4962L84.3631 24.0853C83.9452 23.8942 83.4509 24.0126 83.1649 24.3722L82.3177 25.4369C82.128 25.6754 81.8399 25.8143 81.5352 25.8143H78.7561C78.49 25.8143 78.2348 25.7082 78.0471 25.5195L76.8922 24.3583C76.5487 24.0128 76.0061 23.9652 75.6076 24.2457L72.8189 26.2086C72.4584 26.4624 72.3066 26.9224 72.4453 27.341L72.8353 28.5173C72.954 28.8754 72.8611 29.2697 72.5951 29.5371Z" fill="#09B300"/>
<path d="M70.4965 28.4234L68.8432 30.0859C68.6146 30.3158 68.2887 30.4206 67.9689 30.367L66.7866 30.1689C66.339 30.0938 65.897 30.3297 65.7101 30.7432L64.3034 33.8552C64.1156 34.2706 64.2325 34.7605 64.5878 35.0463L65.6541 35.904C65.89 36.0938 66.0273 36.3804 66.0273 36.6832V39.3372C66.0273 39.6876 65.8439 40.0125 65.5438 40.1935L64.826 40.6266C64.3589 40.9084 64.2038 41.5127 64.4776 41.9846L66.497 45.4656C66.706 45.8259 67.1165 46.0189 67.5273 45.95L68.786 45.7391C69.1058 45.6855 69.4317 45.7903 69.6604 46.0202L70.9775 47.3446C71.2043 47.5727 71.3076 47.8959 71.255 48.2132L71.0695 49.3321C70.9892 49.8166 71.2726 50.2877 71.7383 50.4438L75.1689 51.5936C75.5676 51.7273 76.0074 51.5972 76.2692 51.2681L77.1671 50.1395C77.3568 49.901 77.6449 49.7621 77.9497 49.7621H80.6623C80.967 49.7621 81.2551 49.901 81.4448 50.1395L82.2919 51.2042C82.578 51.5638 83.0723 51.6821 83.4902 51.4911L86.6061 50.067C87.0031 49.8855 87.2366 49.4674 87.1827 49.0341L86.9334 47.0285C86.8907 46.6846 87.029 46.3431 87.299 46.1259L88.633 45.0528C88.8107 44.9098 89.0318 44.8319 89.2598 44.8319H90.9857C91.4451 44.8319 91.8454 44.519 91.9562 44.0732L92.8391 40.5218C92.9331 40.1438 92.799 39.7456 92.4955 39.5014L91.3236 38.5587C91.0876 38.3688 90.9504 38.0823 90.9504 37.7795V35.3843C90.9504 35.12 91.055 34.8665 91.2413 34.6792L92.4307 33.4832C92.7598 33.1523 92.8162 32.6377 92.5666 32.2433L90.5526 29.0608C90.3064 28.6718 89.8263 28.5011 89.3898 28.6474L88.2707 29.0225C87.91 29.1434 87.512 29.0492 87.2438 28.7795L86.0002 27.5289C85.7733 27.3009 85.6701 26.9776 85.7227 26.6603L85.9224 25.4556C85.9962 25.01 85.7623 24.5703 85.3515 24.3825L82.2645 22.9715C81.8466 22.7805 81.3523 22.8989 81.0662 23.2585L80.2191 24.3232C80.0294 24.5617 79.7413 24.7006 79.4366 24.7006H76.6575C76.3913 24.7006 76.1361 24.5945 75.9484 24.4058L74.7936 23.2446C74.45 22.8991 73.9074 22.8515 73.509 23.132L70.7203 25.0949C70.3597 25.3487 70.2079 25.8087 70.3467 26.2273L70.7367 27.4036C70.8553 27.7617 70.7625 28.156 70.4965 28.4234Z" stroke="#666666" stroke-width="2" stroke-linecap="round" stroke-linejoin="round"/>
<path d="M50.5125 47.4529L49.8621 48.1069C49.6334 48.3369 49.3075 48.4416 48.9877 48.388L48.8083 48.358C48.3607 48.283 47.9187 48.5188 47.7318 48.9323L47.1608 50.1955C46.973 50.611 47.09 51.1008 47.4452 51.3866L47.6758 51.5721C47.9117 51.7619 48.049 52.0484 48.049 52.3512V53.5429C48.049 53.8621 47.8819 54.158 47.6086 54.3229C47.183 54.5797 47.0417 55.1302 47.2912 55.5601L48.1844 57.0999C48.3934 57.4602 48.8039 57.6532 49.2147 57.5843L49.4706 57.5414C49.7904 57.4879 50.1163 57.5926 50.3449 57.8225L50.8263 58.3066C51.0531 58.5347 51.1564 58.8579 51.1038 59.1753L51.0855 59.2857C51.0052 59.7702 51.2886 60.2413 51.7542 60.3973L53.1791 60.8749C53.5778 61.0086 54.0176 60.8785 54.2794 60.5494L54.5088 60.2611C54.6985 60.0227 54.9866 59.8837 55.2913 59.8837H56.4996C56.8044 59.8837 57.0925 60.0227 57.2822 60.2611L57.4607 60.4855C57.7468 60.8451 58.2411 60.9634 58.659 60.7724L59.9362 60.1886C60.3333 60.0072 60.5668 59.589 60.5129 59.1558L60.4307 58.4947C60.388 58.1508 60.5263 57.8094 60.7963 57.5922L61.2946 57.1913C61.4723 57.0484 61.6934 56.9705 61.9214 56.9705H62.4773C62.9367 56.9705 63.3369 56.6575 63.4478 56.2117L63.8293 54.6772C63.9233 54.2992 63.7892 53.9009 63.4856 53.6568L63.1495 53.3863C62.9135 53.1965 62.7763 52.91 62.7763 52.6072V51.5566C62.7763 51.2923 62.8809 51.0388 63.0672 50.8514L63.4208 50.4958C63.7499 50.1649 63.8063 49.6503 63.5568 49.2559L62.7127 47.9222C62.4665 47.5332 61.9865 47.3625 61.5499 47.5088L61.4337 47.5478C61.0731 47.6687 60.6751 47.5745 60.4068 47.3048L59.9989 46.8946C59.7721 46.6665 59.6688 46.3432 59.7214 46.0259L59.754 45.8296C59.8278 45.3841 59.5939 44.9443 59.1831 44.7566L57.9347 44.186C57.5168 43.995 57.0225 44.1133 56.7364 44.4729L56.5579 44.6973C56.3682 44.9357 56.0801 45.0747 55.7753 45.0747H54.5006C54.2344 45.0747 53.9792 44.9686 53.7915 44.7798L53.4724 44.459C53.1288 44.1135 52.5862 44.0659 52.1878 44.3464L51.0706 45.1328C50.71 45.3866 50.5582 45.8466 50.6969 46.2652L50.7526 46.4331C50.8713 46.7911 50.7784 47.1855 50.5125 47.4529Z" stroke="#09B300" stroke-width="2" stroke-linecap="round" stroke-linejoin="round"/>
<circle cx="78.3344" cy="37.4965" r="7.7963" fill="white" stroke="#666666" stroke-width="2"/>
<ellipse cx="55.4117" cy="52.4792" rx="3.29647" ry="3.31475" stroke="#09B300" stroke-width="2"/>
</svg>
